<svg xmlns="http://www.w3.org/2000/svg" viewBox="0 0 411.07 180"><defs><style>.cls-1{fill:#4c4c4d;}.cls-2{fill:#323233;}.cls-3,.cls-5{fill:#d5af34;}.cls-4,.cls-5{font-size:84.3px;font-family:DMMono-Medium, DM Mono;font-weight:500;}.cls-4{fill:#414042;}</style></defs><title>Asset 3</title><g id="Layer_2" data-name="Layer 2"><g id="Layer_1-2" data-name="Layer 1"><path class="cls-1" d="M9.94,0H172a9.94,9.94,0,0,1,9.94,9.94V113.75a9.94,9.94,0,0,1-9.94,9.94H0a0,0,0,0,1,0,0V9.94A9.94,9.94,0,0,1,9.94,0Z"/><path class="cls-1" d="M0,123.69l70.25,53.83a11.87,11.87,0,0,0,19-10.82l-5.1-43Z"/><polygon class="cls-2" points="84.15 123.69 18.63 137.97 0 123.69 84.15 123.69"/><path class="cls-3" d="M80.53,51.3a8.8,8.8,0,0,1-8.83,8.81,8.82,8.82,0,0,0-8.81,8.83,8.81,8.81,0,1,1-8.81-8.83,8.8,8.8,0,0,0,8.81-8.81,8.82,8.82,0,0,1,17.64,0Z"/><path class="cls-3" d="M115.79,51.3A8.8,8.8,0,0,1,107,60.11a8.82,8.82,0,0,0-8.83,8.83,8.82,8.82,0,0,1-8.81,8.81,8.81,8.81,0,0,0-8.81,8.81,8.82,8.82,0,1,1-8.83-8.81,8.82,8.82,0,0,0,8.83-8.81,8.82,8.82,0,0,1,8.81-8.83,8.8,8.8,0,0,0,8.81-8.81,8.82,8.82,0,0,1,17.64,0Z"/><path class="cls-3" d="M98.15,33.69a8.81,8.81,0,1,1-8.81-8.84A8.81,8.81,0,0,1,98.15,33.69Z"/><path class="cls-3" d="M133.4,68.94a8.81,8.81,0,1,1-8.81-8.83A8.82,8.82,0,0,1,133.4,68.94Z"/><text class="cls-4" transform="translate(208.75 74.02)">Ask</text><text class="cls-5" transform="translate(208.75 144.48)">Away</text></g></g></svg>